<svg width="20" height="20" viewBox="0 0 20 20" fill="none" xmlns="http://www.w3.org/2000/svg"><path fill-rule="evenodd" clip-rule="evenodd" d="M15.74 20.0001H13.907C13.3632 20.0035 12.8396 19.7947 12.4474 19.418C12.0552 19.0414 11.8255 18.5265 11.807 17.9831V15.1831C11.8026 15.0788 11.7575 14.9803 11.6815 14.9087C11.6054 14.8372 11.5044 14.7982 11.4 14.8001H8.649C8.54596 14.8 8.44685 14.8396 8.37234 14.9108C8.29782 14.982 8.25364 15.0792 8.249 15.1821V17.9701C8.24902 18.0502 8.23791 18.13 8.216 18.2071C8.1413 18.7135 7.88423 19.1751 7.4931 19.5053C7.10197 19.8355 6.60373 20.0114 6.092 20.0001H4.26C3.15993 20.0278 2.09376 19.6182 1.29521 18.8611C0.496659 18.1039 0.0308876 17.0611 0 15.9611V8.03809C0.00589142 7.55562 0.126165 7.08143 0.350939 6.65449C0.575713 6.22754 0.898575 5.86001 1.293 5.58209L7.512 0.818088C8.22466 0.281594 9.09248 -0.00854492 9.9845 -0.00854492C10.8765 -0.00854492 11.7443 0.281594 12.457 0.818088L18.726 5.59109C19.113 5.86817 19.4298 6.23198 19.651 6.65341C19.8722 7.07484 19.9917 7.54219 20 8.01809V15.9611C19.9691 17.0611 19.5033 18.1039 18.7048 18.8611C17.9062 19.6182 16.8401 20.0278 15.74 20.0001ZM11.4 12.9821C11.9988 12.9676 12.579 13.1909 13.0134 13.6033C13.4479 14.0156 13.7012 14.5833 13.718 15.1821V17.9821C13.7208 18.0368 13.7449 18.0883 13.785 18.1256C13.8251 18.163 13.8782 18.1832 13.933 18.1821H15.74C16.3474 18.2004 16.9373 17.9767 17.3799 17.5602C17.8224 17.1437 18.0815 16.5685 18.1 15.9611V8.03009C18.0945 7.83142 18.0427 7.63677 17.9488 7.46162C17.8549 7.28646 17.7214 7.13562 17.559 7.02109L11.27 2.23709C10.8975 1.96281 10.4471 1.81486 9.9845 1.81486C9.52193 1.81486 9.07148 1.96281 8.699 2.23709L2.465 7.01609C2.29535 7.13035 2.15554 7.28357 2.05724 7.46294C1.95894 7.64231 1.90503 7.84261 1.9 8.04709V15.9611C1.91959 16.5678 2.17907 17.142 2.62152 17.5576C3.06396 17.9733 3.65323 18.1964 4.26 18.1781H6.092C6.15003 18.1808 6.20679 18.1605 6.24988 18.1215C6.29297 18.0825 6.31889 18.0281 6.322 17.9701C6.32188 17.9103 6.32791 17.8506 6.34 17.7921V15.1821C6.35753 14.5868 6.60863 14.0223 7.03902 13.6106C7.4694 13.1989 8.0445 12.9732 8.64 12.9821H11.4Z" fill="#FFB7CA"></path></svg>